<svg xmlns="http://www.w3.org/2000/svg" xmlns:xlink="http://www.w3.org/1999/xlink" viewBox="0 0 64 64" version="1.1">
    <g>
        <path style=" fill:#C2CDE7;" d="M 7 7 L 57 7 C 58.105469 7 59 7.894531 59 9 L 59 55 C 59 56.105469 58.105469 57 57 57 L 7 57 C 5.894531 57 5 56.105469 5 55 L 5 9 C 5 7.894531 5.894531 7 7 7 Z "></path>
        <path style=" fill:#ACB7D0;" d="M 9 52 L 55 52 C 57.210938 52 59 53.789063 59 56 C 59 56.550781 58.550781 57 58 57 L 6 57 C 5.449219 57 5 56.550781 5 56 C 5 53.789063 6.789063 52 9 52 Z "></path>
        <path style=" fill:#FFEB9B;" d="M 38 21 C 38 22.65625 36.65625 24 35 24 C 33.34375 24 32 22.65625 32 21 C 32 19.34375 33.34375 18 35 18 C 36.65625 18 38 19.34375 38 21 Z "></path>
        <path style=" fill:#FFEB9B;" d="M 49 29 C 49 30.65625 47.65625 32 46 32 C 44.34375 32 43 30.65625 43 29 C 43 27.34375 44.34375 26 46 26 C 47.65625 26 49 27.34375 49 29 Z "></path>
        <path style=" fill:#FFEB9B;" d="M 41 37 C 41 38.65625 39.65625 40 38 40 C 36.34375 40 35 38.65625 35 37 C 35 35.34375 36.34375 34 38 34 C 39.65625 34 41 35.34375 41 37 Z "></path>
        <path style=" fill:#8D6C9F;" d="M 57 6 L 7 6 C 5.34375 6 4 7.34375 4 9 L 4 55 C 4 56.65625 5.34375 58 7 58 L 57 58 C 58.65625 58 60 56.65625 60 55 L 60 9 C 60 7.34375 58.65625 6 57 6 Z M 58 55 C 58 55.550781 57.550781 56 57 56 L 7 56 C 6.449219 56 6 55.550781 6 55 L 6 9 C 6 8.449219 6.449219 8 7 8 L 57 8 C 57.550781 8 58 8.449219 58 9 Z "></path>
        <path style=" fill:#8D6C9F;" d="M 14 50 C 13.449219 50 13 50.449219 13 51 L 13 53 C 13 53.550781 13.449219 54 14 54 C 14.550781 54 15 53.550781 15 53 L 15 51 C 15 50.449219 14.550781 50 14 50 Z "></path>
        <path style=" fill:#8D6C9F;" d="M 9 50 C 8.449219 50 8 50.449219 8 51 L 8 53 C 8 53.550781 8.449219 54 9 54 C 9.550781 54 10 53.550781 10 53 L 10 51 C 10 50.449219 9.550781 50 9 50 Z "></path>
        <path style=" fill:#8D6C9F;" d="M 29 50 C 28.449219 50 28 50.449219 28 51 L 28 53 C 28 53.550781 28.449219 54 29 54 C 29.550781 54 30 53.550781 30 53 L 30 51 C 30 50.449219 29.550781 50 29 50 Z "></path>
        <path style=" fill:#8D6C9F;" d="M 34 50 C 33.449219 50 33 50.449219 33 51 L 33 53 C 33 53.550781 33.449219 54 34 54 C 34.550781 54 35 53.550781 35 53 L 35 51 C 35 50.449219 34.550781 50 34 50 Z "></path>
        <path style=" fill:#8D6C9F;" d="M 39 50 C 38.449219 50 38 50.449219 38 51 L 38 53 C 38 53.550781 38.449219 54 39 54 C 39.550781 54 40 53.550781 40 53 L 40 51 C 40 50.449219 39.550781 50 39 50 Z "></path>
        <path style=" fill:#8D6C9F;" d="M 44 50 C 43.449219 50 43 50.449219 43 51 L 43 53 C 43 53.550781 43.449219 54 44 54 C 44.550781 54 45 53.550781 45 53 L 45 51 C 45 50.449219 44.550781 50 44 50 Z "></path>
        <path style=" fill:#8D6C9F;" d="M 49 50 C 48.449219 50 48 50.449219 48 51 L 48 53 C 48 53.550781 48.449219 54 49 54 C 49.550781 54 50 53.550781 50 53 L 50 51 C 50 50.449219 49.550781 50 49 50 Z "></path>
        <path style=" fill:#8D6C9F;" d="M 54 50 C 53.449219 50 53 50.449219 53 51 L 53 53 C 53 53.550781 53.449219 54 54 54 C 54.550781 54 55 53.550781 55 53 L 55 51 C 55 50.449219 54.550781 50 54 50 Z "></path>
        <path style=" fill:#8D6C9F;" d="M 19 50 C 18.449219 50 18 50.449219 18 51 L 18 53 C 18 53.550781 18.449219 54 19 54 C 19.550781 54 20 53.550781 20 53 L 20 51 C 20 50.449219 19.550781 50 19 50 Z "></path>
        <path style=" fill:#8D6C9F;" d="M 24 50 C 23.449219 50 23 50.449219 23 51 L 23 53 C 23 53.550781 23.449219 54 24 54 C 24.550781 54 25 53.550781 25 53 L 25 51 C 25 50.449219 24.550781 50 24 50 Z "></path>
        <path style=" fill:#FFFFFF;" d="M 23.710938 36.289063 C 23.320313 35.902344 22.691406 35.902344 22.300781 36.289063 L 18 40.589844 L 18 23 C 18 22.449219 17.550781 22 17 22 C 16.449219 22 16 22.449219 16 23 L 16 40.589844 L 11.710938 36.300781 C 11.3125 35.960938 10.722656 35.984375 10.351563 36.351563 C 9.984375 36.722656 9.960938 37.3125 10.300781 37.710938 L 16.300781 43.710938 C 16.488281 43.898438 16.742188 44.003906 17.011719 44.003906 C 17.277344 44.003906 17.53125 43.898438 17.71875 43.710938 L 23.71875 37.710938 C 23.90625 37.519531 24.011719 37.265625 24.011719 36.996094 C 24.007813 36.730469 23.902344 36.476563 23.710938 36.289063 Z "></path>
        <path style=" fill:#FFFFFF;" d="M 17 20 C 17.550781 20 18 19.550781 18 19 L 18 15 C 18 14.449219 17.550781 14 17 14 C 16.449219 14 16 14.449219 16 15 L 16 19 C 16 19.550781 16.449219 20 17 20 Z "></path>
        <path style=" fill:#8D6C9F;" d="M 52 36 L 41.871094 36 C 41.410156 34.238281 39.820313 33.011719 38 33.011719 C 36.179688 33.011719 34.589844 34.238281 34.128906 36 L 29 36 C 28.449219 36 28 36.449219 28 37 C 28 37.550781 28.449219 38 29 38 L 34.128906 38 C 34.589844 39.761719 36.179688 40.988281 38 40.988281 C 39.820313 40.988281 41.410156 39.761719 41.871094 38 L 52 38 C 52.550781 38 53 37.550781 53 37 C 53 36.449219 52.550781 36 52 36 Z M 39.730469 38 C 39.226563 38.867188 38.15625 39.230469 37.230469 38.84375 C 36.304688 38.457031 35.808594 37.445313 36.070313 36.476563 C 36.332031 35.507813 37.269531 34.882813 38.265625 35.015625 C 39.257813 35.148438 40 35.996094 40 37 C 40 37.351563 39.90625 37.695313 39.730469 38 Z "></path>
        <path style=" fill:#8D6C9F;" d="M 29 22 L 31.128906 22 C 31.589844 23.761719 33.179688 24.988281 35 24.988281 C 36.820313 24.988281 38.410156 23.761719 38.871094 22 L 52 22 C 52.550781 22 53 21.550781 53 21 C 53 20.449219 52.550781 20 52 20 L 38.871094 20 C 38.410156 18.238281 36.820313 17.011719 35 17.011719 C 33.179688 17.011719 31.589844 18.238281 31.128906 20 L 29 20 C 28.449219 20 28 20.449219 28 21 C 28 21.550781 28.449219 22 29 22 Z M 33.269531 20 C 33.773438 19.132813 34.84375 18.769531 35.769531 19.15625 C 36.695313 19.542969 37.191406 20.554688 36.929688 21.523438 C 36.667969 22.492188 35.730469 23.117188 34.734375 22.984375 C 33.742188 22.851563 33 22.003906 33 21 C 33 20.648438 33.09375 20.304688 33.269531 20 Z "></path>
        <path style=" fill:#8D6C9F;" d="M 29 30 L 42.128906 30 C 42.589844 31.761719 44.179688 32.988281 46 32.988281 C 47.820313 32.988281 49.410156 31.761719 49.871094 30 L 52 30 C 52.550781 30 53 29.550781 53 29 C 53 28.449219 52.550781 28 52 28 L 49.871094 28 C 49.410156 26.238281 47.820313 25.011719 46 25.011719 C 44.179688 25.011719 42.589844 26.238281 42.128906 28 L 29 28 C 28.449219 28 28 28.449219 28 29 C 28 29.550781 28.449219 30 29 30 Z M 44.269531 28 C 44.773438 27.132813 45.84375 26.769531 46.769531 27.15625 C 47.695313 27.542969 48.191406 28.554688 47.929688 29.523438 C 47.667969 30.492188 46.730469 31.117188 45.734375 30.984375 C 44.742188 30.851563 44 30.003906 44 29 C 44 28.648438 44.09375 28.304688 44.269531 28 Z "></path>
    </g>
</svg>
